<svg width="119" height="119" viewBox="0 0 119 119" fill="none" xmlns="http://www.w3.org/2000/svg">
  <rect width="119" height="119" rx="10%" fill="white"></rect>
  <!-- for 476 instead of 119, just add scale(4) first -->
  <g transform="translate(0.5 3)
		scale(.8)
		translate(14 14)
		">
    <path d="M78.8326 58.0426C78.8765 48.6428 71.4389 40.699 61.5235 39.5555C51.6081 38.4119 42.3519 44.4304 39.982 53.5619C37.6121 62.6934 42.8784 72.049 52.2379 75.3346L44.6584 113.322H73.7264L66.2799 75.2595C73.8362 72.5045 78.8207 65.6679 78.8326 58.0426Z" fill="#1A3967"/>
    <path d="M118.249 57.7933C117.583 25.6833 91.3083 0 59.1246 0C26.9408 0 0.665851 25.6833 3.09067e-08 57.7933C-0.000675955 78.6062 11.0875 97.8498 29.1129 108.319L32.9103 83.2079C27.0781 76.837 23.8452 68.5192 23.8473 59.8902C24.3594 40.8148 40.0026 25.6167 59.1246 25.6167C78.2465 25.6167 93.8897 40.8148 94.4018 59.8902C94.405 68.5881 91.1238 76.9678 85.2123 83.3594L88.9843 108.395C107.107 97.9657 118.266 78.67 118.249 57.7933Z" fill="#ED7F22"/>
    <g transform="translate(75, 75)">
      <circle cx="21.25" cy="21.25" r="20.5" fill="white" stroke="white" stroke-width="4.5"/>
      <circle cx="21.25" cy="21.25" r="16" fill="white" stroke="#1A3967" stroke-width="4.5"/>
      <line x1="21.25" y1="21.25" x2="21.25" y2="12" stroke="#1A3967" stroke-width="4" stroke-linecap="round" transform="rotate(24, 21.25, 21.25)"/>
      <line x1="21.25" y1="21.25" x2="29" y2="21.25" stroke="#1A3967" stroke-width="4" stroke-linecap="round" transform="rotate(34, 21.25, 21.25)"/>
    </g>
  </g>
</svg>
