<?xml version="1.0" encoding="UTF-8"?>
<svg xmlns="http://www.w3.org/2000/svg" width="108" height="108" viewBox="0 0 108 108">
  <defs>
    <style>
      .b {
        fill: #f08327;
      }

      .c {
        fill: #1e3863;
      }
      .d {
        fill: none;
        stroke: #1e3863;
      }
    </style>
  </defs>
  <g transform="scale(1.4),translate(-15.5,-15.5)">
    <!-- key -->
    <path class="c" d="M59.87,71.24h-11.77c-.27,0-.76-.78-.59-1.16,1.23-2.87,2.46-5.71,3.69-8.58,.74-1.27-.35-1.8-.77-2.04-1.44-.83-2.47-2.06-3.02-3.73-.48-1.44-.48-2.9,.02-4.34,1.03-2.96,3.69-4.62,6.54-4.6,2.98,.02,5.62,2.1,6.4,4.94,.48,1.77,.32,3.49-.55,5.11-.51,.95-1.16,1.73-2.01,2.28-.35,.23-1.9,1.03-1.33,2.3,1.33,2.9,2.65,5.76,3.98,8.66,.18,.39-.21,1.16-.59,1.16Z"/>
    <!-- left foot -->
    <rect class="b" x="33.77" y="57.16" width="10.47" height="17.62" rx="1.5" ry="1.5"/>
    <!-- right foot top -->
    <rect class="b" x="63.76" y="57.16" width="10.47" height="5" rx="1.5" ry="1.5"/>
    <!-- right foot bottom -->
    <path class="b"
        d="M 63.76 58.16
           L 63.76 68.75
           A 7.805 7.805 0 0 1 74.23 64
           L 74.23 58.16
           Z"/>
    <!-- body -->
    <path class="b" d="M71.49,43.19c-1.22-1.88,.7-2.97,2.59-4.98,1.33-1.33,1.04-2.98,.26-3.66-.74-.64-2.4-.93-4.36,1.03-1.74,2.5-3.79,1.75-4.28,1.41-3.41-2.43-7.3-3.72-11.7-3.77h0s0,0,0,0,0,0,0,0h0c-4.4,.06-8.29,1.34-11.7,3.77-.49,.35-2.54,1.09-4.28-1.41-1.96-1.96-3.61-1.68-4.36-1.03-.79,.68-1.07,2.33,.26,3.66,1.89,2.01,3.81,3.09,2.59,4.98-1.58,2.44-2.47,5.19-2.86,8.11-.06,.41-.09,.83-.13,1.24-.06,.75,.52,1.39,1.27,1.41,2.15,.03,6.21,.07,7.92,.08,.7,0,1.29-.5,1.39-1.19,.44-3.08,2.18-10.28,9.91-10.28s9.46,7.2,9.91,10.28c.1,.69,.69,1.19,1.39,1.19,1.71,0,5.77-.05,7.92-.08,.75-.01,1.33-.66,1.27-1.41-.03-.42-.07-.83-.13-1.24-.39-2.92-1.28-5.67-2.86-8.11Z"/>
  </g>
  <!-- clock -->
  <g transform="translate(68, 68) scale(.47)">
    <!-- <circle cx="21.25" cy="21.25" r="23.25" fill="black"/> --> <!-- we fake transparent by building the foot above -->
    <!-- clock rim -->    
    <circle class="d" cx="21.25" cy="21.25" r="16" fill="none" stroke-width="4.5"/>
    <!-- hour hand -->
    <line class="d" x1="21.25" y1="21.25" x2="21.25" y2="13.5" stroke-width="4" stroke-linecap="round" transform="rotate(155, 21.25, 21.25)"/>
    <!-- minute hand -->
    <line class="d" x1="21.25" y1="21.25" x2="21.25" y2="12" stroke-width="4" stroke-linecap="round" transform="rotate(60, 21.25, 21.25)"/>
  </g>
</svg>
