<?xml version="1.0" encoding="UTF-8" standalone="no"?>
<!-- Created with Inkscape (http://www.inkscape.org/) -->

<svg
   version="1.1"
   id="svg249"
   width="981.33331"
   height="981.33331"
   viewBox="0 0 981.33331 981.33331"
   sodipodi:docname="shield.jpeg.svg"
   inkscape:version="1.2.2 (b0a8486541, 2022-12-01)"
   xmlns:inkscape="http://www.inkscape.org/namespaces/inkscape"
   xmlns:sodipodi="http://sodipodi.sourceforge.net/DTD/sodipodi-0.dtd"
   xmlns="http://www.w3.org/2000/svg"
   xmlns:svg="http://www.w3.org/2000/svg">
  <defs
     id="defs253">
    <inkscape:path-effect
       effect="skeletal"
       id="path-effect697"
       is_visible="true"
       lpeversion="1"
       pattern="M 0,18.867924 C 0,8.4528302 8.4528302,0 18.867924,0 c 10.415095,0 18.867925,8.4528302 18.867925,18.867924 0,10.415095 -8.45283,18.867925 -18.867925,18.867925 C 8.4528302,37.735849 0,29.283019 0,18.867924 Z"
       copytype="single_stretched"
       prop_scale="1"
       scale_y_rel="false"
       spacing="0"
       normal_offset="0"
       tang_offset="0"
       prop_units="false"
       vertical_pattern="false"
       hide_knot="false"
       fuse_tolerance="0" />
    <inkscape:path-effect
       effect="bspline"
       id="path-effect695"
       is_visible="true"
       lpeversion="1"
       weight="33.333333"
       steps="2"
       helper_size="0"
       apply_no_weight="true"
       apply_with_weight="true"
       only_selected="false" />
  </defs>
  <sodipodi:namedview
     id="namedview251"
     pagecolor="#ffffff"
     bordercolor="#000000"
     borderopacity="0.25"
     inkscape:showpageshadow="2"
     inkscape:pageopacity="0.0"
     inkscape:pagecheckerboard="0"
     inkscape:deskcolor="#d1d1d1"
     showgrid="false"
     inkscape:zoom="0.96195654"
     inkscape:cx="628.92654"
     inkscape:cy="497.94349"
     inkscape:window-width="1566"
     inkscape:window-height="1007"
     inkscape:window-x="0"
     inkscape:window-y="0"
     inkscape:window-maximized="1"
     inkscape:current-layer="g255" />
  <g
     inkscape:groupmode="layer"
     inkscape:label="Image"
     id="g255">
    <path
       style="fill:#000000;stroke-width:1.33333"
       d="M 475.17356,850.48747 C 397.3476,803.76514 334.01215,744.77804 286.36105,674.63802 218.41901,574.63081 180.92276,451.60814 178.06724,319.33333 c -0.57684,-26.72043 0.88205,-68.68272 2.62998,-75.64704 0.81762,-3.25768 0.9459,-3.28215 21.7293,-4.1452 81.04805,-3.36562 156.56595,-24.98482 220.47971,-63.11875 19.45967,-11.61053 45.25533,-30.56689 59.23151,-43.5272 l 9.47109,-8.78268 3.86224,4.08749 c 21.20652,22.44322 69.89994,54.26262 110.52892,72.22666 54.37279,24.04085 126.62269,39.57338 184.07642,39.57338 h 11.0225 l 0.7773,5 c 2.28252,14.6827 3.35997,61.22411 2.05597,88.80922 -9.45732,200.06244 -90.63638,363.73596 -235.93219,475.68734 -19.34883,14.90842 -49.05194,34.67971 -69.4931,46.25674 l -7.49309,4.24378 z m 42.82643,-33.83728 c 84.48593,-54.95114 151.5475,-129.61529 196.38646,-218.6502 34.46016,-68.42615 54.53213,-139.13884 64.33989,-226.66667 1.7236,-15.38197 3.36016,-96.90042 2.08215,-103.71287 l -0.85764,-4.57162 -18.30877,-1.58524 c -46.21498,-4.00146 -77.64008,-9.96404 -117.6421,-22.3213 -48.31895,-14.92651 -103.70033,-43.90783 -140.57737,-73.56476 -10.31678,-8.29688 -12.22205,-9.3556 -14.23729,-7.91147 -1.27962,0.917 -8.4862,6.44132 -16.01462,12.27628 -37.08375,28.74203 -90.70198,56.01604 -138.50404,70.45295 -35.08547,10.5963 -72.88041,17.60494 -113.33333,21.01636 -9.9,0.83486 -18.35509,1.73553 -18.78908,2.00148 -1.63917,1.00445 -2.37797,43.65396 -1.2112,69.9202 8.04588,181.12768 80.74552,336.42825 206.66694,441.48085 23.34075,19.47252 48.07131,37.23945 72.42131,52.02899 l 10.68174,6.4878 6.11515,-3.57066 c 3.36332,-1.96386 12.71513,-7.86341 20.7818,-13.11012 z"
       id="path277" />
    <path
       style="fill:#ff0000;fill-opacity:0;stroke:#2b0000"
       id="path566"
       sodipodi:type="arc"
       sodipodi:cx="23.406073"
       sodipodi:cy="212.78249"
       sodipodi:rx="1.6486582"
       sodipodi:ry="10.639124"
       sodipodi:start="5.6056851"
       sodipodi:end="1.8909722"
       sodipodi:arc-type="slice"
       d="m 24.690612,206.11338 a 1.6486582,10.639124 0 0 1 0.06986,12.73542 1.6486582,10.639124 0 0 1 -1.873283,4.03213 l 0.518888,-10.09844 z" />
    <path
       style="fill:#ff0000;fill-opacity:0;stroke:none"
       d="m 801.84073,241.15889 c 3.70876,-0.70526 11.78304,21.98463 22.14225,61.98917 9.63717,37.21627 23.83411,100.17886 29.76844,167.29317 2.86512,32.27378 3.94556,68.40773 -0.45187,105.58084 -2.75099,23.64309 -8.07926,48.2903 -17.50488,72.25552 -2.72246,6.92202 -5.75502,13.70635 -9.11658,20.33127 -14.93366,28.96415 -35.59012,53.01981 -57.97478,72.25665 -26.07914,22.42563 -54.4482,39.27542 -80.72147,52.32875 -34.03874,16.95315 -67.85474,29.39349 -94.92068,38.302 -63.00165,20.75631 -102.48488,28.50433 -104.08379,23.8812 -1.59891,-4.62313 35.41929,-20.97251 94.921,-47.5801 25.21421,-11.28286 57.76871,-26.12061 88.66307,-43.63879 24.06268,-13.67752 49.65519,-30.16415 72.02275,-50.57187 19.0313,-17.3803 36.5119,-38.17468 48.51135,-62.08413 2.80303,-5.47722 5.3418,-11.15019 7.63909,-17.00228 7.94244,-20.23246 12.71037,-41.88424 15.68684,-63.17868 4.61666,-33.55568 4.55561,-67.58788 3.23519,-98.62723 -2.59718,-60.47414 -12.09608,-131.96687 -15.83825,-165.83738 -4.51425,-40.85863 -5.68644,-64.99285 -1.97768,-65.69811 z"
       id="path693"
       inkscape:path-effect="#path-effect695;#path-effect697"
       inkscape:original-d="M 801.84073,241.15889 C 831.93719,399.42296 862.03264,557.68602 892.1271,715.94808 757.74218,762.42647 623.36163,808.902 488.97739,855.37745"
       class="UnoptimicedTransforms" />
    <ellipse
       style="fill:#ff0000;fill-opacity:0;stroke:#2b0000"
       id="path776"
       ry="539.02594"
       rx="422.81992"
       cy="328.29007"
       cx="372.80789" />
    <ellipse
       style="fill:#ff0000;fill-opacity:0;stroke:#2b0000"
       id="path778"
       ry="278.94809"
       rx="391.4548"
       cy="-26.094278"
       cx="800.63873" />
    <rect
       style="fill:#0000ff;fill-rule:evenodd"
       id="rect782"
       width="594.55646"
       height="118.58968"
       x="192.50317"
       y="251.98482" />
    <rect
       style="fill:#0000ff;fill-rule:evenodd"
       id="rect784"
       width="177.17796"
       height="709.7027"
       x="313.57803"
       y="141.74399" />
  </g>
</svg>
