<?xml version="1.0" encoding="UTF-8" standalone="no"?>
<svg
   width="320"
   height="180"
   viewBox="0 0 320 180"
   version="1.1"
   id="svg28"
   sodipodi:docname="shield_banner_paths_only.svg"
   inkscape:version="1.2.2 (b0a8486541, 2022-12-01)"
   xmlns:inkscape="http://www.inkscape.org/namespaces/inkscape"
   xmlns:sodipodi="http://sodipodi.sourceforge.net/DTD/sodipodi-0.dtd"
   xmlns="http://www.w3.org/2000/svg"
   xmlns:svg="http://www.w3.org/2000/svg">
  <sodipodi:namedview
     id="namedview30"
     pagecolor="#ffffff"
     bordercolor="#000000"
     borderopacity="0.25"
     inkscape:showpageshadow="2"
     inkscape:pageopacity="0.0"
     inkscape:pagecheckerboard="0"
     inkscape:deskcolor="#d1d1d1"
     showgrid="false"
     inkscape:zoom="1.3111111"
     inkscape:cx="160.16949"
     inkscape:cy="90"
     inkscape:window-width="1566"
     inkscape:window-height="1007"
     inkscape:window-x="0"
     inkscape:window-y="0"
     inkscape:window-maximized="1"
     inkscape:current-layer="g26" />
  <defs
     id="defs6">
    <style
       id="style2">
      .d {
      stroke: #1e3863;
      }
    </style>
    <style
       id="style4">
      .o {
      stroke: #f08327;
      }
    </style>
  </defs>
  <!-- safe area apparently is >= 267.83 x 65 in a 320 x 180 file ?
       maybe 90% ( 288 x 162) ?
  -->
  <!-- <rect width="320" height="180"/> -->
  <!-- <rect x="16" y="9" width="288" height="162" fill="none" stroke="red" stroke-width="1"/> -->
  <!-- <line y1="90" x2="320" y2="90" stroke="red" stroke-width="1"/> -->
  <g
     transform="translate(0,33)"
     id="g26">
    <g
       transform="translate(-18,-22),scale(1.4)"
       id="g18">
      <path
         transform="scale(.072) translate(259.3,203)"
         class="o"
         d="         M 491,142          A 423,328 0 0 0 787,252          A 391,600 0 0 1 491,951         A 391,600 0 0 1 192,252         A 423,328 0 0 0 491,142         Z"
         stroke="#1e3863"
         stroke-width="36"
         fill="none"
         id="path8" />
      <!-- clock -->
      <g
         transform="translate(38.05, 38.05) scale(.75)"
         id="g16">
        <!-- <circle cx="21.25" cy="21.25" r="23.25" fill="black"/> -->
        <!-- clock rim -->
        <circle
           class="d"
           cx="21.25"
           cy="21.25"
           r="16"
           fill="none"
           stroke-width="3"
           id="circle10" />
        <!-- hour hand -->
        <line
           class="d"
           x1="21.25"
           y1="21.25"
           x2="21.25"
           y2="13.5"
           stroke-width="3"
           stroke-linecap="round"
           transform="rotate(155, 21.25, 21.25)"
           id="line12" />
        <!-- minute hand -->
        <line
           class="d"
           x1="21.25"
           y1="21.25"
           x2="21.25"
           y2="12"
           stroke-width="3"
           stroke-linecap="round"
           transform="rotate(60, 21.25, 21.25)"
           id="line14" />
        <!-- <line x1="21.25" y1="-10" x2="21.25" y2="60" stroke="green" stroke-width="0.2" /> -->
        <!-- <line x1="2" y1="21.25" x2="40" y2="21.25" stroke="green" stroke-width="0.2" /> -->
      </g>
    </g>
    <g
       transform="scale(0.5) translate(7,-68)"
       id="g24">
      <style
         id="style20">
	text {
	font-family: &quot;Inter 24pt&quot;;
	font-size: 56px;
	font-weight: 600;
	}
      </style>
      <g
         aria-label="VPN Scheduler"
         id="text22"
         style="font-weight:600;font-size:56px;font-family:'Inter 24pt';text-anchor:middle;fill:#1a3967">
        <path
           d="m 207.54883,199 -14.54688,-40.74219 h 7.92969 l 7.27344,21.30078 q 1.01172,3.14453 2.21484,7.21875 1.20313,4.04688 2.67969,9.21485 h -1.83203 q 1.42187,-5.19532 2.59765,-9.24219 1.17579,-4.04688 2.16016,-7.19141 l 7.05469,-21.30078 h 7.84765 L 216.6543,199 Z"
           id="path190" />
        <path
           d="m 235.41211,199 v -40.74219 h 15.42187 q 4.59375,0 7.82032,1.66797 3.22656,1.66797 4.92187,4.64844 1.72266,2.95312 1.72266,6.91797 0,3.96484 -1.75,6.94531 -1.72266,2.95312 -5.00391,4.62109 -3.2539,1.66797 -7.82031,1.66797 H 239.8418 v -6.09765 h 10.28125 q 2.59765,0 4.34765,-0.875 1.77735,-0.90235 2.67969,-2.51563 0.90234,-1.61328 0.90234,-3.74609 0,-2.16016 -0.90234,-3.7461 -0.90234,-1.58593 -2.67969,-2.46093 -1.75,-0.875 -4.34765,-0.875 h -7.4375 V 199 Z"
           id="path192" />
        <path
           d="m 270.9043,199 v -40.74219 h 8.01172 l 14.21875,22.61328 q 0.71093,1.1211 1.64062,2.76172 0.92969,1.64063 1.96875,3.60938 1.03906,1.9414 1.99609,4.04687 l -0.79296,0.98438 q -0.13672,-1.9961 -0.2461,-4.32032 -0.10937,-2.32421 -0.16406,-4.42968 -0.0547,-2.13282 -0.0547,-3.41797 v -21.84766 h 7.32813 V 199 h -8.03907 l -12.79687,-20.34375 q -0.90234,-1.44922 -1.99609,-3.30859 -1.09375,-1.85938 -2.40625,-4.23829 -1.28516,-2.3789 -2.92579,-5.35937 l 1.1211,-0.60156 q 0.16406,3.00781 0.24609,5.66015 0.10938,2.625 0.16406,4.64844 0.0547,1.99609 0.0547,3.17188 V 199 Z"
           id="path194" />
        <path
           d="m 340.05664,199.65625 q -4.92187,0 -8.47656,-1.58594 -3.55469,-1.58594 -5.4961,-4.5664 -1.9414,-3.00782 -2.02343,-7.21875 h 7.13672 q 0.082,2.32421 1.20312,3.9375 1.12109,1.58593 3.08984,2.43359 1.96875,0.82031 4.56641,0.82031 2.48828,0 4.34766,-0.71094 1.85937,-0.73828 2.89843,-2.05078 1.06641,-1.33984 1.06641,-3.11718 0,-1.50391 -0.84766,-2.54297 -0.82031,-1.06641 -2.48828,-1.83203 -1.64062,-0.76563 -4.1289,-1.33985 l -4.48438,-1.09375 q -5.66015,-1.33984 -8.55859,-4.04687 -2.8711,-2.70703 -2.8711,-7.02735 0,-3.60937 1.88672,-6.3164 1.91407,-2.73438 5.27735,-4.23828 3.39062,-1.50391 7.79297,-1.50391 4.45703,0 7.73828,1.53125 3.30859,1.53125 5.14062,4.34766 1.85938,2.78906 1.96875,6.53515 h -6.97265 q -0.21875,-2.95312 -2.35157,-4.59375 -2.13281,-1.66797 -5.60547,-1.66797 -2.26953,0 -3.99218,0.71094 -1.69532,0.71094 -2.65235,1.96875 -0.92968,1.23047 -0.92968,2.84375 0,1.53125 0.875,2.57031 0.90234,1.03907 2.51562,1.75 1.61328,0.71094 3.82813,1.23047 l 3.99218,0.95703 q 2.76172,0.62891 4.97657,1.61328 2.24218,0.98438 3.82812,2.37891 1.61328,1.39453 2.46094,3.25391 0.84765,1.85937 0.84765,4.29297 0,3.6914 -1.88671,6.45312 -1.85938,2.76172 -5.35938,4.29297 -3.47266,1.53125 -8.3125,1.53125 z"
           id="path196" />
        <path
           d="m 374.26367,199.62891 q -4.32031,0 -7.54687,-1.94141 -3.22657,-1.94141 -5.03125,-5.38672 -1.77735,-3.47266 -1.77735,-8.03906 0,-4.56641 1.77735,-8.03906 1.80468,-3.5 5.03125,-5.44141 3.22656,-1.94141 7.54687,-1.94141 2.625,0 4.86719,0.73828 2.26953,0.73829 3.99219,2.10547 1.72265,1.36719 2.8164,3.28125 1.09375,1.91407 1.44922,4.23828 l -6.72656,0.62891 q -0.21875,-1.17578 -0.76563,-2.13281 -0.51953,-0.95703 -1.33984,-1.64063 -0.79297,-0.71093 -1.85937,-1.09375 -1.06641,-0.38281 -2.37891,-0.38281 -2.35156,0 -3.99219,1.23047 -1.61328,1.23047 -2.46094,3.41797 -0.84765,2.16015 -0.84765,5.03125 0,2.84375 0.84765,5.0039 0.84766,2.16016 2.46094,3.39063 1.64063,1.23047 3.99219,1.23047 1.33984,0 2.40625,-0.38281 1.06641,-0.38282 1.85937,-1.06641 0.79297,-0.71094 1.3125,-1.69531 0.54688,-1.01172 0.79297,-2.21485 l 6.72657,0.62891 q -0.30079,2.32422 -1.39454,4.26562 -1.09375,1.91407 -2.84375,3.3086 -1.72265,1.39453 -3.99218,2.16015 -2.26953,0.73829 -4.92188,0.73829 z"
           id="path198" />
        <path
           d="M 399.69336,181.96484 V 199 h -7 v -40.74219 h 6.97266 v 18.56641 h -1.14844 q 1.33984,-3.91016 3.85547,-5.9336 2.51562,-2.02343 6.26172,-2.02343 3.08984,0 5.41406,1.33984 2.35156,1.3125 3.63672,3.88281 1.3125,2.54297 1.3125,6.26172 V 199 h -7 v -17.55469 q 0,-3.14453 -1.5586,-4.8125 -1.53125,-1.69531 -4.32031,-1.69531 -1.85937,0 -3.30859,0.76562 -1.44922,0.76563 -2.29688,2.35157 -0.82031,1.55859 -0.82031,3.91015 z"
           id="path200" />
        <path
           d="m 438.84961,199.62891 q -4.45703,0 -7.71094,-1.91407 -3.22656,-1.9414 -4.97656,-5.38672 -1.75,-3.47265 -1.75,-8.03906 0,-4.53906 1.77734,-8.01172 1.77735,-3.5 4.92188,-5.46875 3.17187,-1.96875 7.35547,-1.96875 3.00781,0 5.52343,1.01172 2.54297,1.01172 4.42969,2.95313 1.88672,1.9414 2.92578,4.78515 1.03907,2.81641 1.03907,6.45313 v 2.02344 h -24.96485 v -4.78516 h 21.46485 l -3.17188,1.33984 q 0,-2.51562 -0.84766,-4.34765 -0.84765,-1.85938 -2.46093,-2.8711 -1.58594,-1.03906 -3.85547,-1.03906 -2.24219,0 -3.88281,1.03906 -1.61329,1.01172 -2.48829,2.84375 -0.875,1.80469 -0.875,4.15625 v 3.14453 q 0,2.67969 0.92969,4.6211 0.92969,1.91406 2.65235,2.95312 1.72265,1.01172 4.10156,1.01172 1.64062,0 2.95312,-0.46484 1.3125,-0.49219 2.21485,-1.39453 0.90234,-0.92969 1.33984,-2.1875 l 6.48047,0.60156 q -0.60156,2.65234 -2.43359,4.67578 -1.83204,2.02344 -4.56641,3.14453 -2.73438,1.1211 -6.125,1.1211 z"
           id="path202" />
        <path
           d="m 468.90039,199.57422 q -3.69141,0 -6.53516,-1.85938 -2.8164,-1.88672 -4.42968,-5.33203 -1.58594,-3.44531 -1.58594,-8.17578 0,-4.73047 1.61328,-8.17578 1.64063,-3.44531 4.45703,-5.30469 2.84375,-1.85937 6.45313,-1.85937 2.26953,0 3.9375,0.71093 1.66797,0.6836 2.84375,1.83204 1.20312,1.12109 1.9414,2.48828 h 0.16407 v -15.64063 h 7 V 199 h -6.89063 v -4.59375 h -0.21875 q -0.73828,1.42187 -1.94141,2.59766 -1.20312,1.17578 -2.89843,1.88671 -1.66797,0.6836 -3.91016,0.6836 z m 1.77734,-5.79688 q 2.26954,0 3.91016,-1.20312 1.66797,-1.20313 2.54297,-3.36328 0.90234,-2.16016 0.90234,-5.03125 0,-2.89844 -0.90234,-5.03125 -0.875,-2.13282 -2.51563,-3.3086 -1.64062,-1.17578 -3.9375,-1.17578 -2.24218,0 -3.88281,1.17578 -1.61328,1.14844 -2.46094,3.28125 -0.84765,2.13282 -0.84765,5.0586 0,2.92578 0.84765,5.08593 0.875,2.16016 2.48829,3.33594 1.61328,1.17578 3.85546,1.17578 z"
           id="path204" />
        <path
           d="m 501.87695,199.49219 q -3.0625,0 -5.41406,-1.3125 -2.35156,-1.33985 -3.66406,-3.88282 -1.3125,-2.57031 -1.3125,-6.26171 v -18.67579 h 7 v 17.58204 q 0,3.11718 1.55859,4.8125 1.58594,1.69531 4.34766,1.69531 1.85937,0 3.28125,-0.76563 1.44922,-0.79297 2.26953,-2.35156 0.84766,-1.58594 0.84766,-3.9375 v -17.03516 h 7 V 199 h -6.75391 l -0.0547,-7.4375 h 1.01172 q -1.36719,3.91016 -3.88281,5.93359 -2.51563,1.9961 -6.23438,1.9961 z"
           id="path206" />
        <path
           d="M 531.54492,158.25781 V 199 h -7 v -40.74219 z"
           id="path208" />
        <path
           d="m 551.36914,199.62891 q -4.45703,0 -7.71094,-1.91407 -3.22656,-1.9414 -4.97656,-5.38672 -1.75,-3.47265 -1.75,-8.03906 0,-4.53906 1.77734,-8.01172 1.77735,-3.5 4.92188,-5.46875 3.17187,-1.96875 7.35547,-1.96875 3.00781,0 5.52344,1.01172 2.54296,1.01172 4.42968,2.95313 1.88672,1.9414 2.92578,4.78515 1.03907,2.81641 1.03907,6.45313 v 2.02344 h -24.96485 v -4.78516 h 21.46485 l -3.17188,1.33984 q 0,-2.51562 -0.84765,-4.34765 -0.84766,-1.85938 -2.46094,-2.8711 -1.58594,-1.03906 -3.85547,-1.03906 -2.24219,0 -3.88281,1.03906 -1.61328,1.01172 -2.48828,2.84375 -0.875,1.80469 -0.875,4.15625 v 3.14453 q 0,2.67969 0.92968,4.6211 0.92969,1.91406 2.65235,2.95312 1.72265,1.01172 4.10156,1.01172 1.64062,0 2.95312,-0.46484 1.3125,-0.49219 2.21485,-1.39453 0.90234,-0.92969 1.33984,-2.1875 l 6.48047,0.60156 q -0.60156,2.65234 -2.43359,4.67578 -1.83203,2.02344 -4.56641,3.14453 -2.73437,1.1211 -6.125,1.1211 z"
           id="path210" />
        <path
           d="m 570.20898,199 v -29.64063 h 6.75391 v 4.94922 h 0.21875 q 0.79297,-2.57031 2.65234,-3.91015 1.85938,-1.36719 4.59375,-1.36719 0.62891,0 1.28516,0.0547 0.65625,0.0273 1.09375,0.10937 v 6.28906 q -0.38281,-0.082 -1.33984,-0.16406 -0.95703,-0.10937 -1.94141,-0.10937 -1.77734,0 -3.22656,0.79297 -1.42188,0.79296 -2.26953,2.29687 -0.82032,1.47656 -0.82032,3.60938 V 199 Z"
           id="path212" />
      </g>
    </g>
  </g>
</svg>
