<svg width="108" height="108" viewBox="0 0 108 108" xmlns="http://www.w3.org/2000/svg">
  <g transform="translate(0.5 3)
		scale(.55)
		translate(38 36)
		">
    <!-- key -->
    <path d="
	     M 78.8326 58.0426
	     C 78.8765 48.6428 71.4389 40.699 61.5235 39.5555
	     C 51.6081 38.4119 42.3519 44.4304 39.982 53.5619
	     C 37.6121 62.6934 42.8784 72.049 52.2379 75.3346
	     L 44.6584 113.322
	     H 73.7264
	     L 66.2799 75.2595
	     C 73.8362 72.5045 78.8207 65.6679 78.8326 58.0426
	     Z
	     " fill="#1A3967"/> -->
    <!-- circle -->
    <path d="
	 M 29.1129 108.319
	 L 32.9103 83.2079
	 A 34 34 0 1 1 91 74
	 A 25 25 0 0 1 113.5 81
	 A 59 59 0 1 0 29.1129 108.319
      "
      fill="#ED7F22"/>

    <!-- clock -->
    <g transform="translate(75, 75)">
      <!-- <circle cx="21.25" cy="21.25" r="25" fill="white"/> -->
      <circle cx="21.25" cy="21.25" r="16" fill="none" stroke="#1A3967" stroke-width="4.5"/>  <!-- clock rim -->
      <line x1="21.25" y1="21.25" x2="21.25" y2="13.5" stroke="#1A3967" stroke-width="4" stroke-linecap="round" transform="rotate(155, 21.25, 21.25)"/>  <!-- hour hand -->
      <line x1="21.25" y1="21.25" x2="21.25" y2="12" stroke="#1A3967" stroke-width="4" stroke-linecap="round" transform="rotate(60, 21.25, 21.25)"/>  <!-- minute hand -->
    </g>
  </g>
</svg>
