<?xml version="1.0" encoding="UTF-8" standalone="no"?>
<svg
   width="320"
   height="180"
   viewBox="0 0 320 180"
   version="1.1"
   id="svg332"
   sodipodi:docname="adaptive_banner_foreground_paths_only.svg"
   inkscape:version="1.2.2 (b0a8486541, 2022-12-01)"
   xmlns:inkscape="http://www.inkscape.org/namespaces/inkscape"
   xmlns:sodipodi="http://sodipodi.sourceforge.net/DTD/sodipodi-0.dtd"
   xmlns="http://www.w3.org/2000/svg"
   xmlns:svg="http://www.w3.org/2000/svg">
  <defs
     id="defs336" />
  <sodipodi:namedview
     id="namedview334"
     pagecolor="#ffffff"
     bordercolor="#000000"
     borderopacity="0.25"
     inkscape:showpageshadow="2"
     inkscape:pageopacity="0.0"
     inkscape:pagecheckerboard="0"
     inkscape:deskcolor="#d1d1d1"
     showgrid="false"
     inkscape:zoom="1.3111111"
     inkscape:cx="160.16949"
     inkscape:cy="90"
     inkscape:window-width="1566"
     inkscape:window-height="1007"
     inkscape:window-x="0"
     inkscape:window-y="0"
     inkscape:window-maximized="1"
     inkscape:current-layer="svg332" />
  <!-- safe area apparently is >= 267.83 x 65 in a 320 x 180 file ?
       maybe 90% ( 288 x 162) ?
  -->
  <g
     transform="translate(0.5 40)   scale(.55)   translate(36 36)   "
     id="g322"><!-- key -->
<path
   d="       M 78.8326 58.0426       C 78.8765 48.6428 71.4389 40.699 61.5235 39.5555       C 51.6081 38.4119 42.3519 44.4304 39.982 53.5619       C 37.6121 62.6934 42.8784 72.049 52.2379 75.3346       L 44.6584 113.322       H 73.7264       L 66.2799 75.2595       C 73.8362 72.5045 78.8207 65.6679 78.8326 58.0426       Z       "
   fill="#1A3967"
   id="path310" />
 --&gt;
    <!-- circle -->
<path
   d="   M 29.1129 108.319   L 32.9103 83.2079   A 34 34 0 1 1 91 74   A 25 25 0 0 1 113.5 81   A 59 59 0 1 0 29.1129 108.319       "
   fill="#ED7F22"
   id="path312" />
<!-- clock -->
<g
   transform="translate(75, 75)"
   id="g320">
  <!-- <circle cx="21.25" cy="21.25" r="25" fill="white"/> -->
  <circle
     cx="21.25"
     cy="21.25"
     r="16"
     fill="none"
     stroke="#1A3967"
     stroke-width="4.5"
     id="circle314" />
  <!-- clock rim -->
  <line
     x1="21.25"
     y1="21.25"
     x2="21.25"
     y2="13.5"
     stroke="#1A3967"
     stroke-width="4"
     stroke-linecap="round"
     transform="rotate(155, 21.25, 21.25)"
     id="line316" />
  <!-- hour hand -->
  <line
     x1="21.25"
     y1="21.25"
     x2="21.25"
     y2="12"
     stroke="#1A3967"
     stroke-width="4"
     stroke-linecap="round"
     transform="rotate(60, 21.25, 21.25)"
     id="line318" />
  <!-- minute hand -->
</g>
</g>
  <g
     transform="scale(0.5)"
     id="g330">
    <style
       id="style324">
      text {
      font-family: &quot;Inter 24pt&quot;;
      font-size: 40px;
      font-weight: bold;
      }
    </style>
    <g
       aria-label="OpenVPN for Android"
       id="text326"
       style="font-weight:bold;font-size:40px;font-family:'Inter 24pt';text-anchor:middle;fill:#1a3967">
      <path
         d="m 201.49414,170.42969 q -3.88672,0 -6.99219,-1.79688 -3.08593,-1.79687 -4.88281,-5.13672 -1.77734,-3.35937 -1.77734,-8.02734 0,-4.6875 1.77734,-8.04688 1.79688,-3.35937 4.88281,-5.15625 3.10547,-1.79687 6.99219,-1.79687 3.88672,0 6.97266,1.79687 3.08593,1.79688 4.88281,5.15625 1.79687,3.35938 1.79687,8.04688 0,4.66797 -1.79687,8.02734 -1.79688,3.35938 -4.88281,5.15625 -3.08594,1.77735 -6.97266,1.77735 z m 0,-5.29297 q 2.24609,0 3.96484,-1.11328 1.71875,-1.13282 2.67579,-3.30078 0.95703,-2.16797 0.95703,-5.25391 0,-3.125 -0.95703,-5.29297 -0.95704,-2.16797 -2.67579,-3.28125 -1.71875,-1.13281 -3.96484,-1.13281 -2.24609,0 -3.96484,1.13281 -1.71875,1.11328 -2.69532,3.30078 -0.95703,2.16797 -0.95703,5.27344 0,3.08594 0.95703,5.25391 0.97657,2.16796 2.69532,3.30078 1.71875,1.11328 3.96484,1.11328 z"
         id="path338" />
      <path
         d="m 218.89648,178.16406 v -29.33594 h 5.70313 v 3.20313 h 0.17578 q 0.52734,-0.99609 1.36719,-1.79688 0.83984,-0.80078 2.03125,-1.26953 1.1914,-0.48828 2.7539,-0.48828 2.53907,0 4.53125,1.3086 2.01172,1.30859 3.16407,3.76953 1.17187,2.4414 1.17187,5.85937 0,3.41797 -1.13281,5.87891 -1.13281,2.46094 -3.14453,3.78906 -2.01172,1.32813 -4.62891,1.32813 -1.54297,0 -2.73437,-0.48829 -1.17188,-0.48828 -2.01172,-1.30859 -0.82031,-0.83984 -1.32813,-1.875 h -0.11718 v 11.42578 z m 10.3711,-12.46094 q 1.46484,0 2.5,-0.76171 1.03515,-0.76172 1.58203,-2.16797 0.54687,-1.42578 0.54687,-3.35938 0,-1.93359 -0.54687,-3.32031 -0.54688,-1.40625 -1.58203,-2.16797 -1.03516,-0.78125 -2.5,-0.78125 -1.48438,0 -2.5586,0.78125 -1.07421,0.78125 -1.66015,2.1875 -0.56641,1.38672 -0.56641,3.30078 0,1.89453 0.56641,3.32031 0.58594,1.40625 1.66015,2.1875 1.09375,0.78125 2.5586,0.78125 z"
         id="path340" />
      <path
         d="m 252.99805,170.44922 q -3.22266,0 -5.58594,-1.36719 -2.36328,-1.38672 -3.65234,-3.84766 -1.28907,-2.48046 -1.28907,-5.76171 0,-3.24219 1.28907,-5.72266 1.30859,-2.48047 3.61328,-3.88672 2.32422,-1.40625 5.39062,-1.40625 2.20703,0 4.0625,0.74219 1.875,0.72265 3.24219,2.1289 1.36719,1.40625 2.12891,3.41797 0.76171,2.01172 0.76171,4.57032 v 1.58203 h -18.28125 v -3.67188 h 15.46875 l -2.65625,0.91797 q 0,-1.62109 -0.54687,-2.8125 -0.54688,-1.19141 -1.58203,-1.83594 -1.03516,-0.64453 -2.51953,-0.64453 -1.46485,0 -2.51953,0.66406 -1.03516,0.64454 -1.60157,1.81641 -0.5664,1.15234 -0.5664,2.69531 v 2.5586 q 0,1.71875 0.60547,2.96875 0.60546,1.23047 1.71875,1.89453 1.13281,0.64453 2.65625,0.64453 1.09375,0 1.95312,-0.3125 0.85938,-0.3125 1.44531,-0.89844 0.60547,-0.58594 0.87891,-1.38672 l 5.27344,0.42969 q -0.44922,1.93359 -1.79688,3.41797 -1.32812,1.46484 -3.35937,2.28516 -2.01172,0.82031 -4.53125,0.82031 z"
         id="path342" />
      <path
         d="M 272.25586,158.00781 V 170 h -5.80078 v -21.17188 h 5.60547 l 0.0391,5.41016 h -0.70313 q 0.91797,-2.73437 2.69532,-4.23828 1.79687,-1.52344 4.58984,-1.52344 2.22656,0 3.88672,0.97656 1.66016,0.95704 2.55859,2.79297 0.91797,1.81641 0.91797,4.41407 V 170 h -5.80078 v -12.30469 q 0,-2.05078 -1.01562,-3.16406 -1.01563,-1.11328 -2.85157,-1.11328 -1.21093,0 -2.14843,0.50781 -0.91797,0.50781 -1.44532,1.54297 -0.52734,1.01562 -0.52734,2.53906 z"
         id="path344" />
      <path
         d="m 296.98242,170 -10.19531,-29.10156 h 6.58203 L 298.05664,155 q 0.82031,2.65625 1.69922,5.80078 0.89844,3.125 1.91406,6.83594 h -1.52344 q 0.97657,-3.73047 1.83594,-6.85547 0.85938,-3.125 1.66016,-5.78125 l 4.53125,-14.10156 h 6.52344 l -10,29.10156 z"
         id="path346" />
      <path
         d="m 317.58789,170 v -29.10156 h 11.40625 q 3.30078,0 5.66406,1.21093 2.36328,1.21094 3.61328,3.37891 1.26954,2.16797 1.26954,5.07813 0,2.91015 -1.28907,5.07812 -1.26953,2.16797 -3.65234,3.37891 -2.38281,1.1914 -5.70313,1.1914 h -7.71484 v -4.9414 h 7.12891 q 1.69922,0 2.85156,-0.58594 1.17187,-0.58594 1.77734,-1.64063 0.60547,-1.07421 0.60547,-2.48046 0,-1.42579 -0.60547,-2.46094 -0.60547,-1.05469 -1.77734,-1.64063 -1.15234,-0.58593 -2.87109,-0.58593 h -4.72657 V 170 Z"
         id="path348" />
      <path
         d="m 343.13477,170 v -29.10156 h 6.46484 l 9.27734,14.82422 q 0.54688,0.8789 1.23047,2.10937 0.70313,1.21094 1.44531,2.67578 0.74219,1.44531 1.44532,3.02735 l -0.64453,0.85937 q -0.0977,-1.46484 -0.19532,-3.22266 -0.0781,-1.77734 -0.11718,-3.39843 -0.0391,-1.64063 -0.0391,-2.65625 v -14.21875 h 6.03516 V 170 h -6.48438 l -8.41796,-13.41797 q -0.70313,-1.13281 -1.50391,-2.51953 -0.78125,-1.38672 -1.71875,-3.10547 -0.91797,-1.73828 -2.03125,-3.84766 l 0.91797,-0.39062 q 0.13672,2.12891 0.21484,4.04297 0.0781,1.91406 0.11719,3.41797 0.0391,1.48437 0.0391,2.38281 V 170 Z"
         id="path350" />
      <path
         d="m 393.70117,148.82812 v 4.51172 h -13.94531 v -4.51172 z M 383.54492,170 v -23.39844 q 0,-2.10937 0.82031,-3.49609 0.82032,-1.40625 2.36329,-2.10938 1.54296,-0.70312 3.67187,-0.70312 1.19141,0 2.20703,0.0977 1.03516,0.0977 1.48438,0.17579 l -0.46875,4.47265 q -0.29297,-0.0586 -0.87891,-0.0977 -0.56641,-0.0391 -1.07422,-0.0391 -1.28906,0 -1.8164,0.56641 -0.52735,0.56641 -0.52735,1.75781 V 170 Z"
         id="path352" />
      <path
         d="m 405.98633,170.44922 q -3.1836,0 -5.56641,-1.36719 -2.38281,-1.38672 -3.6914,-3.84766 -1.3086,-2.48046 -1.3086,-5.76171 0,-3.30079 1.3086,-5.78125 1.30859,-2.48047 3.6914,-3.84766 2.38281,-1.38672 5.56641,-1.38672 3.22265,0 5.58594,1.38672 2.36328,1.36719 3.67187,3.84766 1.30859,2.48046 1.30859,5.78125 0,3.28125 -1.30859,5.76171 -1.30859,2.46094 -3.67187,3.84766 -2.36329,1.36719 -5.58594,1.36719 z m 0,-4.64844 q 1.48437,0 2.51953,-0.78125 1.05469,-0.80078 1.62109,-2.22656 0.56641,-1.42578 0.56641,-3.33985 0,-1.91406 -0.56641,-3.33984 -0.5664,-1.42578 -1.62109,-2.20703 -1.03516,-0.80078 -2.51953,-0.80078 -1.46485,0 -2.51953,0.80078 -1.05469,0.78125 -1.6211,2.20703 -0.54687,1.40625 -0.54687,3.33984 0,1.91407 0.54687,3.33985 0.56641,1.42578 1.6211,2.22656 1.05468,0.78125 2.51953,0.78125 z"
         id="path354" />
      <path
         d="m 420.14648,170 v -21.17188 h 5.60547 v 3.65235 h 0.13672 q 0.56641,-1.9336 1.875,-2.89063 1.3086,-0.95703 3.24219,-0.95703 0.48828,0 0.95703,0.0391 0.46875,0.0195 0.83984,0.0781 v 5.03906 q -0.35156,-0.0781 -1.07421,-0.13672 -0.72266,-0.0586 -1.42579,-0.0586 -1.25,0 -2.24609,0.56641 -0.99609,0.54687 -1.5625,1.60156 -0.54687,1.03515 -0.54687,2.5 V 170 Z"
         id="path356" />
      <path
         d="m 442.91992,170 10.09766,-29.10156 h 7.7539 L 470.98633,170 h -6.64063 l -4.60937,-14.10156 q -0.85938,-2.75391 -1.73828,-5.83985 -0.85938,-3.08593 -1.875,-6.875 h 1.5039 q -0.99609,3.78907 -1.85547,6.89453 -0.85937,3.08594 -1.69921,5.82032 L 449.44336,170 Z m 6.36719,-6.52344 v -4.74609 h 15.35156 v 4.74609 z"
         id="path358" />
      <path
         d="M 479.56055,158.00781 V 170 h -5.80078 v -21.17188 h 5.60546 l 0.0391,5.41016 h -0.70313 q 0.91797,-2.73437 2.69531,-4.23828 1.79688,-1.52344 4.58985,-1.52344 2.22656,0 3.88672,0.97656 1.66015,0.95704 2.55859,2.79297 0.91797,1.81641 0.91797,4.41407 V 170 h -5.80078 v -12.30469 q 0,-2.05078 -1.01563,-3.16406 -1.01562,-1.11328 -2.85156,-1.11328 -1.21094,0 -2.14844,0.50781 -0.91797,0.50781 -1.44531,1.54297 -0.52734,1.01562 -0.52734,2.53906 z"
         id="path360" />
      <path
         d="m 505.83008,170.41016 q -2.59766,0 -4.60938,-1.32813 -2.01172,-1.32812 -3.16406,-3.78906 -1.13281,-2.46094 -1.13281,-5.87891 0,-3.41797 1.15234,-5.85937 1.17188,-2.46094 3.1836,-3.76953 2.01171,-1.3086 4.55078,-1.3086 1.5625,0 2.73437,0.48828 1.19141,0.46875 2.03125,1.28907 0.83985,0.80078 1.36719,1.79687 h 0.0977 v -11.15234 h 5.80078 V 170 h -5.72266 v -3.32031 h -0.13672 q -0.50781,1.07422 -1.36719,1.91406 -0.83984,0.83984 -2.03125,1.32812 -1.1914,0.48829 -2.7539,0.48829 z m 1.64062,-4.70704 q 1.46485,0 2.53907,-0.78125 1.07421,-0.78125 1.66015,-2.1875 0.58594,-1.42578 0.58594,-3.32031 0,-1.91406 -0.58594,-3.30078 -0.58594,-1.40625 -1.66015,-2.1875 -1.05469,-0.78125 -2.53907,-0.78125 -1.44531,0 -2.5,0.78125 -1.03515,0.76172 -1.60156,2.16797 -0.54687,1.38672 -0.54687,3.32031 0,1.9336 0.54687,3.35938 0.56641,1.40625 1.60156,2.16797 1.05469,0.76171 2.5,0.76171 z"
         id="path362" />
      <path
         d="m 522.33398,170 v -21.17188 h 5.60547 v 3.65235 h 0.13672 q 0.56641,-1.9336 1.875,-2.89063 1.3086,-0.95703 3.24219,-0.95703 0.48828,0 0.95703,0.0391 0.46875,0.0195 0.83984,0.0781 v 5.03906 q -0.35156,-0.0781 -1.07421,-0.13672 -0.72266,-0.0586 -1.42579,-0.0586 -1.25,0 -2.24609,0.56641 -0.99609,0.54687 -1.5625,1.60156 -0.54687,1.03515 -0.54687,2.5 V 170 Z"
         id="path364" />
      <path
         d="m 546.98242,170.44922 q -3.18359,0 -5.5664,-1.36719 -2.38282,-1.38672 -3.69141,-3.84766 -1.30859,-2.48046 -1.30859,-5.76171 0,-3.30079 1.30859,-5.78125 1.30859,-2.48047 3.69141,-3.84766 2.38281,-1.38672 5.5664,-1.38672 3.22266,0 5.58594,1.38672 2.36328,1.36719 3.67187,3.84766 1.3086,2.48046 1.3086,5.78125 0,3.28125 -1.3086,5.76171 -1.30859,2.46094 -3.67187,3.84766 -2.36328,1.36719 -5.58594,1.36719 z m 0,-4.64844 q 1.48438,0 2.51953,-0.78125 1.05469,-0.80078 1.6211,-2.22656 0.5664,-1.42578 0.5664,-3.33985 0,-1.91406 -0.5664,-3.33984 -0.56641,-1.42578 -1.6211,-2.20703 -1.03515,-0.80078 -2.51953,-0.80078 -1.46484,0 -2.51953,0.80078 -1.05469,0.78125 -1.62109,2.20703 -0.54688,1.40625 -0.54688,3.33984 0,1.91407 0.54688,3.33985 0.5664,1.42578 1.62109,2.22656 1.05469,0.78125 2.51953,0.78125 z"
         id="path366" />
      <path
         d="m 561.14258,170 v -21.17188 h 5.80078 V 170 Z m 2.89062,-23.86719 q -1.38672,0 -2.32422,-0.8789 -0.9375,-0.87891 -0.9375,-2.16797 0,-1.28907 0.9375,-2.14844 0.9375,-0.87891 2.30469,-0.87891 1.38672,0 2.32422,0.87891 0.9375,0.85937 0.9375,2.14844 0,1.28906 -0.9375,2.16797 -0.9375,0.8789 -2.30469,0.8789 z"
         id="path368" />
      <path
         d="m 579.4043,170.41016 q -2.59766,0 -4.60938,-1.32813 -2.01172,-1.32812 -3.16406,-3.78906 -1.13281,-2.46094 -1.13281,-5.87891 0,-3.41797 1.15234,-5.85937 1.17188,-2.46094 3.18359,-3.76953 2.01172,-1.3086 4.55079,-1.3086 1.5625,0 2.73437,0.48828 1.19141,0.46875 2.03125,1.28907 0.83984,0.80078 1.36719,1.79687 h 0.0977 v -11.15234 h 5.80079 V 170 h -5.72266 v -3.32031 h -0.13672 q -0.50781,1.07422 -1.36719,1.91406 -0.83984,0.83984 -2.03125,1.32812 -1.1914,0.48829 -2.7539,0.48829 z m 1.64062,-4.70704 q 1.46485,0 2.53906,-0.78125 1.07422,-0.78125 1.66016,-2.1875 0.58594,-1.42578 0.58594,-3.32031 0,-1.91406 -0.58594,-3.30078 -0.58594,-1.40625 -1.66016,-2.1875 -1.05468,-0.78125 -2.53906,-0.78125 -1.44531,0 -2.5,0.78125 -1.03515,0.76172 -1.60156,2.16797 -0.54688,1.38672 -0.54688,3.32031 0,1.9336 0.54688,3.35938 0.56641,1.40625 1.60156,2.16797 1.05469,0.76171 2.5,0.76171 z"
         id="path370" />
    </g>
    <g
       aria-label="Scheduler"
       id="text328"
       style="font-weight:bold;font-size:40px;font-family:'Inter 24pt';text-anchor:middle;fill:#1a3967">
      <path
         d="m 306.47461,220.44922 q -3.63281,0 -6.25,-1.13281 -2.61719,-1.13282 -4.04297,-3.32032 -1.40625,-2.1875 -1.44531,-5.3125 h 5.80078 q 0.0586,1.54297 0.80078,2.61719 0.76172,1.05469 2.07031,1.62109 1.3086,0.54688 3.06641,0.54688 1.64062,0 2.85156,-0.44922 1.21094,-0.46875 1.89453,-1.30859 0.6836,-0.83985 0.6836,-1.95313 0,-0.97656 -0.56641,-1.66015 -0.56641,-0.6836 -1.69922,-1.19141 -1.13281,-0.50781 -2.87109,-0.89844 l -3.125,-0.72265 q -4.04297,-0.91797 -6.15235,-2.89063 -2.08984,-1.97266 -2.08984,-5.11719 0,-2.65625 1.38672,-4.6289 1.40625,-1.97266 3.88672,-3.06641 2.48047,-1.11328 5.72265,-1.11328 3.30079,0 5.72266,1.11328 2.42188,1.11328 3.76953,3.16406 1.34766,2.03125 1.42578,4.80469 h -5.70312 q -0.15625,-1.93359 -1.54297,-3.02734 -1.38672,-1.09375 -3.69141,-1.09375 -1.48437,0 -2.59765,0.44922 -1.11328,0.44921 -1.71875,1.25 -0.60547,0.78125 -0.60547,1.8164 0,0.97656 0.5664,1.66016 0.56641,0.66406 1.66016,1.13281 1.09375,0.46875 2.63672,0.82031 l 2.71484,0.625 q 2.10938,0.46875 3.75,1.19141 1.64063,0.70312 2.77344,1.71875 1.13281,1.01562 1.71875,2.38281 0.60547,1.34766 0.60547,3.06641 0,2.73437 -1.36719,4.74609 -1.36719,1.99219 -3.92578,3.08594 -2.55859,1.07422 -6.11328,1.07422 z"
         id="path373" />
      <path
         d="m 331.20117,220.44922 q -3.18359,0 -5.54687,-1.38672 -2.36328,-1.38672 -3.67188,-3.84766 -1.28906,-2.48047 -1.28906,-5.74218 0,-3.28125 1.28906,-5.76172 1.3086,-2.48047 3.67188,-3.86719 2.36328,-1.38672 5.54687,-1.38672 1.99219,0 3.67188,0.56641 1.67968,0.54687 2.94922,1.58203 1.26953,1.01562 2.05078,2.4414 0.80078,1.42579 1.01562,3.1836 l -5.50781,0.44922 q -0.15625,-0.82032 -0.48828,-1.46485 -0.33203,-0.66406 -0.85938,-1.13281 -0.52734,-0.48828 -1.23047,-0.74219 -0.68359,-0.2539 -1.54296,-0.2539 -1.48438,0 -2.53907,0.80078 -1.05468,0.78125 -1.60156,2.22656 -0.54687,1.42578 -0.54687,3.33984 0,1.91407 0.54687,3.33985 0.54688,1.42578 1.60156,2.22656 1.05469,0.80078 2.53907,0.80078 0.85937,0 1.54296,-0.2539 0.70313,-0.25391 1.21094,-0.72266 0.52735,-0.48828 0.85938,-1.17188 0.35156,-0.68359 0.50781,-1.52343 l 5.52734,0.42968 q -0.19531,1.77735 -0.97656,3.22266 -0.78125,1.42578 -2.07031,2.48047 -1.26953,1.03516 -2.96875,1.60156 -1.67969,0.56641 -3.69141,0.56641 z"
         id="path375" />
      <path
         d="M 350.22461,208.00781 V 220 h -5.80078 v -29.10156 h 5.74219 v 13.33984 h -0.80079 q 0.91797,-2.73437 2.69532,-4.23828 1.79687,-1.52344 4.58984,-1.52344 2.22656,0 3.88672,0.97656 1.66016,0.95704 2.55859,2.79297 0.91797,1.81641 0.91797,4.41407 V 220 h -5.80078 v -12.30469 q 0,-2.05078 -1.01562,-3.16406 -1.01563,-1.11328 -2.85157,-1.11328 -1.21093,0 -2.14843,0.50781 -0.91797,0.50781 -1.44532,1.54297 -0.52734,1.01562 -0.52734,2.53906 z"
         id="path377" />
      <path
         d="m 378.11523,220.44922 q -3.22265,0 -5.58593,-1.36719 -2.36328,-1.38672 -3.65235,-3.84766 -1.28906,-2.48046 -1.28906,-5.76171 0,-3.24219 1.28906,-5.72266 1.3086,-2.48047 3.61328,-3.88672 2.32422,-1.40625 5.39063,-1.40625 2.20703,0 4.0625,0.74219 1.875,0.72265 3.24219,2.1289 1.36718,1.40625 2.1289,3.41797 0.76172,2.01172 0.76172,4.57032 v 1.58203 h -18.28125 v -3.67188 h 15.46875 l -2.65625,0.91797 q 0,-1.62109 -0.54687,-2.8125 -0.54688,-1.19141 -1.58203,-1.83594 -1.03516,-0.64453 -2.51954,-0.64453 -1.46484,0 -2.51953,0.66406 -1.03515,0.64454 -1.60156,1.81641 -0.56641,1.15234 -0.56641,2.69531 v 2.5586 q 0,1.71875 0.60547,2.96875 0.60547,1.23047 1.71875,1.89453 1.13282,0.64453 2.65625,0.64453 1.09375,0 1.95313,-0.3125 0.85937,-0.3125 1.44531,-0.89844 0.60547,-0.58594 0.87891,-1.38672 l 5.27343,0.42969 q -0.44921,1.93359 -1.79687,3.41797 -1.32813,1.46484 -3.35938,2.28516 -2.01171,0.82031 -4.53125,0.82031 z"
         id="path379" />
      <path
         d="m 399.56055,220.41016 q -2.59766,0 -4.60938,-1.32813 -2.01172,-1.32812 -3.16406,-3.78906 -1.13281,-2.46094 -1.13281,-5.87891 0,-3.41797 1.15234,-5.85937 1.17188,-2.46094 3.18359,-3.76953 2.01172,-1.3086 4.55079,-1.3086 1.5625,0 2.73437,0.48828 1.19141,0.46875 2.03125,1.28907 0.83984,0.80078 1.36719,1.79687 h 0.0976 v -11.15234 h 5.80079 V 220 h -5.72266 v -3.32031 h -0.13672 q -0.50781,1.07422 -1.36719,1.91406 -0.83984,0.83984 -2.03125,1.32812 -1.1914,0.48829 -2.7539,0.48829 z m 1.64062,-4.70704 q 1.46485,0 2.53906,-0.78125 1.07422,-0.78125 1.66016,-2.1875 0.58594,-1.42578 0.58594,-3.32031 0,-1.91406 -0.58594,-3.30078 -0.58594,-1.40625 -1.66016,-2.1875 -1.05468,-0.78125 -2.53906,-0.78125 -1.44531,0 -2.5,0.78125 -1.03515,0.76172 -1.60156,2.16797 -0.54688,1.38672 -0.54688,3.32031 0,1.9336 0.54688,3.35938 0.56641,1.40625 1.60156,2.16797 1.05469,0.76171 2.5,0.76171 z"
         id="path381" />
      <path
         d="m 423.42773,220.37109 q -2.22656,0 -3.88671,-0.95703 -1.66016,-0.97656 -2.57813,-2.8125 -0.89844,-1.83594 -0.89844,-4.41406 v -13.35938 h 5.80078 v 12.32422 q 0,2.05078 1.01563,3.16407 1.01562,1.11328 2.85156,1.11328 1.21094,0 2.12891,-0.50782 0.9375,-0.52734 1.46484,-1.54296 0.52735,-1.03516 0.52735,-2.5586 v -11.99219 h 5.80078 V 220 h -5.60547 l -0.0391,-5.41016 h 0.70312 q -0.9375,2.73438 -2.73437,4.25782 -1.77735,1.52343 -4.55079,1.52343 z"
         id="path383" />
      <path
         d="M 445.94727,190.89844 V 220 h -5.80079 v -29.10156 z"
         id="path385" />
      <path
         d="m 460.0293,220.44922 q -3.22266,0 -5.58594,-1.36719 -2.36328,-1.38672 -3.65234,-3.84766 -1.28907,-2.48046 -1.28907,-5.76171 0,-3.24219 1.28907,-5.72266 1.30859,-2.48047 3.61328,-3.88672 2.32422,-1.40625 5.39062,-1.40625 2.20703,0 4.0625,0.74219 1.875,0.72265 3.24219,2.1289 1.36719,1.40625 2.12891,3.41797 0.76171,2.01172 0.76171,4.57032 v 1.58203 h -18.28125 v -3.67188 h 15.46875 l -2.65625,0.91797 q 0,-1.62109 -0.54687,-2.8125 -0.54688,-1.19141 -1.58203,-1.83594 -1.03516,-0.64453 -2.51953,-0.64453 -1.46485,0 -2.51953,0.66406 -1.03516,0.64454 -1.60157,1.81641 -0.5664,1.15234 -0.5664,2.69531 v 2.5586 q 0,1.71875 0.60547,2.96875 0.60546,1.23047 1.71875,1.89453 1.13281,0.64453 2.65625,0.64453 1.09375,0 1.95312,-0.3125 0.85938,-0.3125 1.44531,-0.89844 0.60547,-0.58594 0.87891,-1.38672 l 5.27344,0.42969 q -0.44922,1.93359 -1.79688,3.41797 -1.32812,1.46484 -3.35937,2.28516 -2.01172,0.82031 -4.53125,0.82031 z"
         id="path387" />
      <path
         d="m 473.48633,220 v -21.17188 h 5.60547 v 3.65235 h 0.13672 q 0.5664,-1.9336 1.875,-2.89063 1.30859,-0.95703 3.24218,-0.95703 0.48828,0 0.95703,0.0391 0.46875,0.0195 0.83985,0.0781 v 5.03906 q -0.35156,-0.0781 -1.07422,-0.13672 -0.72266,-0.0586 -1.42578,-0.0586 -1.25,0 -2.2461,0.56641 -0.99609,0.54687 -1.5625,1.60156 -0.54687,1.03515 -0.54687,2.5 V 220 Z"
         id="path389" />
    </g>
  </g>
  <!-- guidance (scaled 2x) -->
  <!--
  <rect x="32" y="18" width="576" height="324" fill="none" stroke="red" stroke-width="1"/>
  <line x1="32" y1="180" x2="640" y2="180" stroke="red" stroke-width="1"/>
  -->
</svg>
